<?xml version="1.0" encoding="UTF-8" standalone="no"?>
<svg
   xmlns:dc="http://purl.org/dc/elements/1.1/"
   xmlns:cc="http://creativecommons.org/ns#"
   xmlns:rdf="http://www.w3.org/1999/02/22-rdf-syntax-ns#"
   xmlns:svg="http://www.w3.org/2000/svg"
   xmlns="http://www.w3.org/2000/svg"
   xmlns:sodipodi="http://sodipodi.sourceforge.net/DTD/sodipodi-0.dtd"
   xmlns:inkscape="http://www.inkscape.org/namespaces/inkscape"
   width="128"
   height="128"
   viewBox="0 0 13.1072 13.1072"
   preserveAspectRatio="xMinYMin meet"
   version="1.1"
   id="svg4"
   sodipodi:docname="ic_codepen.svg"
   inkscape:version="1.0.1 (3bc2e813f5, 2020-09-07)">
  <metadata
     id="metadata10">
    <rdf:RDF>
      <cc:Work
         rdf:about="">
        <dc:format>image/svg+xml</dc:format>
        <dc:type
           rdf:resource="http://purl.org/dc/dcmitype/StillImage" />
        <dc:title />
      </cc:Work>
    </rdf:RDF>
  </metadata>
  <defs
     id="defs8" />
  <sodipodi:namedview
     pagecolor="#ffffff"
     bordercolor="#666666"
     borderopacity="1"
     objecttolerance="10"
     gridtolerance="10"
     guidetolerance="10"
     inkscape:pageopacity="0"
     inkscape:pageshadow="2"
     inkscape:window-width="1920"
     inkscape:window-height="1017"
     id="namedview6"
     showgrid="false"
     inkscape:pagecheckerboard="true"
     inkscape:zoom="6.4609375"
     inkscape:cx="64"
     inkscape:cy="64"
     inkscape:window-x="-8"
     inkscape:window-y="-8"
     inkscape:window-maximized="1"
     inkscape:current-layer="svg4"
     inkscape:document-rotation="0" />
  <path
     d="m 13.097307,4.4588745 c -0.003,-0.015872 -0.0056,-0.031744 -0.0099,-0.047309 -0.0027,-0.00937 -0.0058,-0.018176 -0.0088,-0.027392 a 0.5635584,0.5635584 0 0 0 -0.01449,-0.04096 c -0.0039,-0.00932 -0.0083,-0.01833 -0.01254,-0.027341 a 0.498688,0.498688 0 0 0 -0.01925,-0.037376 c -0.0049,-0.00901 -0.0106,-0.01751 -0.01603,-0.026112 a 0.5651456,0.5651456 0 0 0 -0.04311,-0.05847 0.5716992,0.5716992 0 0 0 -0.02785,-0.030515 c -0.0074,-0.00742 -0.01485,-0.014848 -0.02263,-0.022067 a 0.464384,0.464384 0 0 0 -0.03195,-0.026624 c -0.0084,-0.00655 -0.01674,-0.013312 -0.0256,-0.019302 -0.0031,-0.00225 -0.006,-0.00492 -0.0093,-0.00707 L 6.8658578,0.09474014 a 0.5626368,0.5626368 0 0 0 -0.6246912,0 l -5.9904,3.99349756 c -0.003328,0.0021 -0.005939,0.00476 -0.009318,0.00707 -0.008806,0.00614 -0.0171008,0.012698 -0.0256,0.019251 a 0.794624,0.794624 0 0 0 -0.0319488,0.02647 0.4405248,0.4405248 0 0 0 -0.0224256,0.022016 c -0.009882,0.00993 -0.0190464,0.019968 -0.0280576,0.030566 -0.006656,0.00794 -0.013056,0.015872 -0.0192512,0.02473 -0.008448,0.01111 -0.0162304,0.022426 -0.023808,0.034253 -0.0054784,0.00865 -0.0109568,0.017101 -0.0160768,0.026112 a 0.4911616,0.4911616 0 0 0 -0.0190464,0.037069 c -0.0042496,0.00901 -0.0088064,0.018176 -0.012544,0.027341 -0.0054784,0.013414 -0.01024,0.027187 -0.0146432,0.04096 -0.0029696,0.00922 -0.006144,0.018176 -0.0086528,0.02647 -0.004096,0.015514 -0.0070656,0.031232 -0.0098816,0.047309 -0.001536,0.00814 -0.0035328,0.016077 -0.004608,0.024371 C 0.0017298,4.5065417 -1.1e-5,4.5309129 -1.1e-5,4.5557961 v 3.9944192 c 0,0.024678 0.0017408,0.049408 0.0052736,0.073574 0.00128,0.00886 0.003584,0.015872 0.0053248,0.024371 0.002816,0.015872 0.0052736,0.031744 0.0105984,0.047667 0.0024576,0.00881 0.0052736,0.017664 0.0088064,0.027341 0.0044032,0.014131 0.0088064,0.028262 0.0141312,0.041165 0.0036864,0.00881 0.0088064,0.017613 0.0123392,0.02647 0.0058368,0.012339 0.0123904,0.024678 0.019456,0.037581 0.0049152,0.00881 0.0105472,0.017664 0.015872,0.025754 0.0075776,0.01239 0.015872,0.022989 0.0246784,0.033536 0.006195,0.00886 0.0123904,0.015872 0.019456,0.024371 0.00896,0.010598 0.0176128,0.021197 0.0282112,0.030566 0.007219,0.00701 0.0141312,0.015872 0.0229376,0.021146 0.01024,0.00886 0.0211968,0.017664 0.031744,0.026829 0.008499,0.00707 0.0177152,0.01239 0.0247296,0.019251 0.003379,0.00174 0.005325,0.00527 0.008858,0.00686 L 6.241167,13.012346 a 0.553728,0.553728 0 0 0 0.3124224,0.09477 0.566272,0.566272 0 0 0 0.3124224,-0.09472 L 12.856411,9.0187955 c 0.0033,-0.00205 0.0061,-0.00456 0.0093,-0.00686 0.0088,-0.00614 0.0171,-0.012698 0.0256,-0.0192 0.01096,-0.0087 0.02171,-0.017664 0.03195,-0.026829 0.0077,-0.00691 0.01516,-0.01449 0.02258,-0.021914 a 0.5056512,0.5056512 0 0 0 0.0471,-0.054886 c 0.0085,-0.01111 0.01628,-0.022579 0.02386,-0.034253 0.0055,-0.00845 0.01096,-0.017101 0.01608,-0.025754 0.0071,-0.01239 0.01321,-0.024883 0.0192,-0.037581 0.0042,-0.00901 0.0087,-0.018022 0.01254,-0.027187 0.0055,-0.013619 0.01009,-0.027392 0.01449,-0.041165 0.003,-0.00916 0.0061,-0.018176 0.0088,-0.027341 0.0041,-0.015514 0.0069,-0.031437 0.0099,-0.047309 0.0014,-0.00814 0.0036,-0.016077 0.0044,-0.024371 0.0032,-0.02432 0.005,-0.048691 0.005,-0.073574 V 4.5568201 c 0,-0.024883 -0.0019,-0.049254 -0.005,-0.073626 -0.0014,-0.00865 -0.004,-0.015667 -0.0058,-0.02432 z m -6.5438716,3.427072 -1.991936,-1.3322752 1.991936,-1.33248 1.9920384,1.33248 z M 5.9903378,4.2428105 3.5485074,5.8760905 1.577461,4.5574857 5.990389,1.6156361 V 4.2428105 Z M 2.5355154,6.5534665 1.126645,7.4958537 V 5.6111305 Z m 1.012992,0.678144 2.4418816,1.6330752 V 11.49186 l -4.412928,-2.9422079 1.9710976,-1.3184 v 3.584e-4 z M 7.1166354,8.8643785 9.5584658,7.2313033 11.529717,8.5496521 7.1166354,11.491502 V 8.8643273 Z M 10.571458,6.5538249 11.980533,5.6112841 v 1.884928 L 10.571509,6.5534665 v 3.584e-4 z M 9.5584658,5.8760393 7.1166354,4.2429641 v -2.627328 l 4.4130816,2.9419008 -1.9712,1.3185024 z"
     fill="#cccccc"
     id="path2"
     style="stroke-width:0.0512;fill:#ffffff" />
</svg>
