<?xml version="1.0" encoding="UTF-8" standalone="no"?>
<svg
   xmlns:dc="http://purl.org/dc/elements/1.1/"
   xmlns:cc="http://creativecommons.org/ns#"
   xmlns:rdf="http://www.w3.org/1999/02/22-rdf-syntax-ns#"
   xmlns:svg="http://www.w3.org/2000/svg"
   xmlns="http://www.w3.org/2000/svg"
   xmlns:sodipodi="http://sodipodi.sourceforge.net/DTD/sodipodi-0.dtd"
   xmlns:inkscape="http://www.inkscape.org/namespaces/inkscape"
   width="128"
   height="128"
   viewBox="0 0 15.003663 15.0016"
   preserveAspectRatio="xMidYMid"
   version="1.1"
   id="svg847"
   sodipodi:docname="ic_discord.svg"
   inkscape:version="1.0.1 (3bc2e813f5, 2020-09-07)">
  <metadata
     id="metadata853">
    <rdf:RDF>
      <cc:Work
         rdf:about="">
        <dc:format>image/svg+xml</dc:format>
        <dc:type
           rdf:resource="http://purl.org/dc/dcmitype/StillImage" />
        <dc:title />
      </cc:Work>
    </rdf:RDF>
  </metadata>
  <defs
     id="defs851" />
  <sodipodi:namedview
     pagecolor="#ffffff"
     bordercolor="#666666"
     borderopacity="1"
     objecttolerance="10"
     gridtolerance="10"
     guidetolerance="10"
     inkscape:pageopacity="0"
     inkscape:pageshadow="2"
     inkscape:window-width="1920"
     inkscape:window-height="1017"
     id="namedview849"
     showgrid="false"
     inkscape:pagecheckerboard="true"
     inkscape:zoom="4.5685727"
     inkscape:cx="70.058437"
     inkscape:cy="76.982365"
     inkscape:window-x="-8"
     inkscape:window-y="-8"
     inkscape:window-maximized="1"
     inkscape:current-layer="svg847"
     inkscape:document-rotation="0" />
  <path
     d="M 12.528044,-0.00103125 H 2.4756697 c -0.8477448,0 -1.53795095,0.69015488 -1.53795095,1.54538685 V 11.686831 c 0,0.855233 0.69015475,1.545387 1.53789965,1.545387 h 8.5070896 l -0.397642,-1.387848 0.960258,0.892719 0.907695,0.840207 1.612925,1.425335 V 1.5443556 c 0,-0.85523197 -0.690156,-1.54538685 -1.5379,-1.54538685 z M 9.6323472,9.7964191 c 0,0 -0.270052,-0.3226158 -0.4951288,-0.6076929 C 10.119989,8.9111359 10.495066,8.2960068 10.495066,8.2960068 10.187476,8.4985711 9.8949116,8.6411354 9.6323472,8.7385715 9.2572696,8.8961616 8.8971666,9.0011362 8.5446019,9.0611873 7.8243955,9.1962132 7.1642407,9.1587259 6.6016245,9.0536993 6.1739828,8.9711354 5.8063927,8.8511351 5.4988537,8.731135 5.3262895,8.6635966 5.1387506,8.5810835 4.9511605,8.4760576 c -0.022461,-0.015024 -0.044974,-0.022512 -0.067487,-0.037538 -0.014976,-0.00749 -0.022512,-0.014976 -0.03,-0.022461 C 4.7186473,8.3410335 4.6436215,8.28852 4.6436215,8.28852 c 0,0 0.3601031,0.6001548 1.3128227,0.8851809 C 5.7314174,9.4588294 5.4538273,9.7963683 5.4538273,9.7963683 3.7958763,9.7438556 3.1657727,8.6561102 3.1657727,8.6561102 3.1657727,6.2405169 4.2460306,4.282514 4.2460306,4.282514 5.3262888,3.4723077 6.3540337,3.4948205 6.3540337,3.4948205 l 0.075026,0.090052 c -1.3503099,0.39 -1.9729773,0.9827191 -1.9729773,0.9827191 0,0 0.1650258,-0.09 0.4425647,-0.2175391 0.8027191,-0.3526158 1.4404124,-0.4501031 1.7029767,-0.4726162 0.044974,-0.00754 0.082512,-0.015024 0.1275388,-0.015024 a 6.3474965,6.3474965 0 0 1 1.5153871,-0.014975 c 0.7126163,0.082512 1.4778481,0.2925646 2.2580033,0.7201551 0,0 -0.5926165,-0.5626162 -1.8679518,-0.9527194 L 8.739627,3.4948717 c 0,0 1.0277455,-0.022564 2.108003,0.7876935 0,0 1.08031,1.9579518 1.08031,4.3735452 0,0 -0.637693,1.0877452 -2.2955933,1.1402581 z M 6.1439828,6.2930292 c -0.4275901,0 -0.7651294,0.3750778 -0.7651294,0.832668 0,0.4576417 0.3450261,0.8327194 0.7651294,0.8327194 0.4276416,0 0.7651807,-0.3750777 0.7651807,-0.8327194 0.00754,-0.4575901 -0.3375391,-0.832668 -0.7651292,-0.832668 m 2.7381577,0 c -0.4276417,0 -0.7652318,0.3750778 -0.7652318,0.832668 0,0.4576417 0.3451286,0.8327194 0.7652318,0.8327194 0.4275906,0 0.7651294,-0.3750777 0.7651294,-0.8327194 0,-0.4575902 -0.3375389,-0.832668 -0.7651294,-0.832668"
     fill="#7289da"
     id="path845"
     style="stroke-width:0.0512821;fill:#ffffff" />
</svg>
