<?xml version="1.0" encoding="UTF-8" standalone="no"?>
<svg
   xmlns:dc="http://purl.org/dc/elements/1.1/"
   xmlns:cc="http://creativecommons.org/ns#"
   xmlns:rdf="http://www.w3.org/1999/02/22-rdf-syntax-ns#"
   xmlns:svg="http://www.w3.org/2000/svg"
   xmlns="http://www.w3.org/2000/svg"
   xmlns:sodipodi="http://sodipodi.sourceforge.net/DTD/sodipodi-0.dtd"
   xmlns:inkscape="http://www.inkscape.org/namespaces/inkscape"
   viewBox="0 0 127.98859 127.98859"
   width="128"
   height="128"
   version="1.1"
   id="svg20"
   sodipodi:docname="ic_instagram.svg"
   inkscape:version="1.0.1 (3bc2e813f5, 2020-09-07)">
  <metadata
     id="metadata24">
    <rdf:RDF>
      <cc:Work
         rdf:about="">
        <dc:format>image/svg+xml</dc:format>
        <dc:type
           rdf:resource="http://purl.org/dc/dcmitype/StillImage" />
        <dc:title />
      </cc:Work>
    </rdf:RDF>
  </metadata>
  <sodipodi:namedview
     pagecolor="#ffffff"
     bordercolor="#666666"
     borderopacity="1"
     objecttolerance="10"
     gridtolerance="10"
     guidetolerance="10"
     inkscape:pageopacity="0"
     inkscape:pageshadow="2"
     inkscape:window-width="1920"
     inkscape:window-height="1017"
     id="namedview22"
     showgrid="false"
     inkscape:pagecheckerboard="true"
     inkscape:zoom="4.5685727"
     inkscape:cx="61.018864"
     inkscape:cy="73.840953"
     inkscape:window-x="-8"
     inkscape:window-y="-8"
     inkscape:window-maximized="1"
     inkscape:current-layer="svg20"
     inkscape:document-rotation="0" />
  <defs
     id="defs12">
    <radialGradient
       id="0"
       cx="217.75999"
       cy="3290.99"
       r="4271.9199"
       gradientUnits="userSpaceOnUse"
       gradientTransform="scale(0.03803863)">
      <stop
         offset=".09"
         stop-color="#fa8f21"
         id="stop2" />
      <stop
         offset=".78"
         stop-color="#d82d7e"
         id="stop4" />
    </radialGradient>
    <radialGradient
       id="1"
       cx="2330.6101"
       cy="3182.95"
       r="3759.3301"
       gradientUnits="userSpaceOnUse"
       gradientTransform="matrix(0.03803863,0,0,0.03803863,10.52385,9.7500377)">
      <stop
         offset=".64"
         stop-color="#8c3aaa"
         stop-opacity="0"
         id="stop7" />
      <stop
         offset="1"
         stop-color="#8c3aaa"
         id="stop9" />
    </radialGradient>
  </defs>
  <path
     id="rect902"
     style="opacity:0.997;fill:#ffffff;stroke-width:5.38313;stroke-linecap:round;stroke-linejoin:round;paint-order:markers fill stroke"
     d="m 64.007413,1.5e-6 c -17.376881,0 -19.563322,0.07101 -26.390485,0.386378 h -0.0026 c -6.812826,0.310246 -11.466432,1.390818 -15.53201,2.972751 -4.207908,1.633639 -7.775071,3.8246 -11.336868,7.3806205 -3.5617979,3.556018 -5.7472177,7.12355 -7.3809239,11.336403 -1.581997,4.067971 -2.66261737,8.721452 -2.97287212,15.534 C 0.07627703,44.433453 0.002629,46.615567 0.002629,63.994298 c 0,17.378726 0.07364303,19.55822 0.38902398,26.381511 0.31025475,6.81306 1.39087512,11.466031 2.97287212,15.534001 1.6337062,4.20774 3.819639,7.78192 7.3809239,11.33641 3.561286,3.55448 7.123841,5.74237 11.336868,7.38061 4.073259,1.58196 8.719184,2.66252 15.53201,2.97276 6.827163,0.31025 9.005786,0.389 26.385228,0.389 17.379445,0 19.561649,-0.0736 26.38523,-0.389 6.81334,-0.31024 11.466495,-1.3908 15.534635,-2.97276 4.2079,-1.63824 7.77244,-3.82459 11.33424,-7.38061 3.56181,-3.55602 5.74523,-7.12867 7.38355,-11.33641 1.582,-4.06797 2.66774,-8.721451 2.97288,-15.534001 0.31025,-6.82841 0.38113,-9.002784 0.38113,-26.38151 0,-17.378731 -0.0708,-19.560846 -0.38113,-26.384144 -0.31025,-6.813061 -1.39088,-11.468588 -2.97288,-15.534 -1.63832,-4.207735 -3.82736,-7.774753 -7.38355,-11.336403 C 113.69749,7.1780995 110.12746,4.9927695 105.92468,3.3591305 101.85142,1.7771975 97.197745,0.6915065 90.390045,0.3863795 83.565435,0.0746015 81.384323,1.5e-6 64.007441,1.5e-6 Z m -0.0079,11.5282765 c 17.082501,0 19.110759,0.06607 25.86215,0.373237 6.239417,0.284135 9.626896,1.329675 11.886237,2.199993 2.98787,1.158035 5.11847,2.550738 7.35989,4.788993 2.24143,2.238258 3.62335,4.371842 4.78656,7.359594 0.87855,2.252592 1.91909,5.643955 2.20272,11.883117 0.31026,6.751111 0.37062,8.77161 0.37062,25.861086 0,17.089472 -0.0603,19.109973 -0.37062,25.861091 -0.28414,6.23916 -1.32979,9.63213 -2.20272,11.885741 -1.16321,2.98775 -2.5482,5.11813 -4.78656,7.35434 -2.23834,2.2362 -4.37202,3.6232 -7.35989,4.78636 -2.252681,0.87851 -5.64682,1.91901 -11.886237,2.20262 -6.745759,0.31025 -8.771972,0.37324 -25.86215,0.37324 -17.090176,0 -19.110552,-0.063 -25.854264,-0.37324 -6.239417,-0.28413 -9.629897,-1.32462 -11.883603,-2.20262 -2.987876,-1.16316 -5.121107,-2.54811 -7.362525,-4.78636 -2.241419,-2.23826 -3.628478,-4.36921 -4.786561,-7.35697 -0.878546,-2.252592 -1.916451,-5.643952 -2.200083,-11.883112 -0.310259,-6.745485 -0.373252,-8.771618 -0.373252,-25.86109 0,-17.089477 0.06811,-19.109975 0.373252,-25.861087 0.284143,-6.239162 1.329727,-9.623869 2.200083,-11.883117 1.163203,-2.987752 2.548213,-5.120895 4.786561,-7.362222 2.238346,-2.241327 4.36953,-3.62833 7.362525,-4.786364 2.252682,-0.878509 5.644186,-1.916371 11.883603,-2.199993 6.745759,-0.310243 8.771768,-0.373237 25.854264,-0.373237 z m 34.163061,10.626729 a 7.6831813,7.6828656 0 0 0 -7.680575,7.675005 7.6795976,7.679282 0 1 0 7.683205,-7.675005 z m -34.163061,8.978704 c -18.149449,0 -32.859308,14.710856 -32.859308,32.860587 h -0.0026 c 0,18.148702 14.712487,32.857961 32.861936,32.857961 18.149452,0 32.86193,-14.709259 32.86193,-32.85796 0,-18.148707 -14.712478,-32.860587 -32.86193,-32.860587 z m 0,11.525649 c 11.781019,0 21.333184,9.554404 21.333184,21.334938 0,11.780529 -9.552165,21.33231 -21.333184,21.33231 -11.781014,0 -21.327928,-9.551781 -21.327928,-21.33231 0,-11.780534 9.546914,-21.334938 21.327928,-21.334938 z" />
</svg>
