<?xml version="1.0" encoding="UTF-8" standalone="no"?>
<svg
   xmlns:dc="http://purl.org/dc/elements/1.1/"
   xmlns:cc="http://creativecommons.org/ns#"
   xmlns:rdf="http://www.w3.org/1999/02/22-rdf-syntax-ns#"
   xmlns:svg="http://www.w3.org/2000/svg"
   xmlns="http://www.w3.org/2000/svg"
   xmlns:sodipodi="http://sodipodi.sourceforge.net/DTD/sodipodi-0.dtd"
   xmlns:inkscape="http://www.inkscape.org/namespaces/inkscape"
   height="128"
   width="128"
   viewBox="0 0 13.159839 13.1072"
   version="1.1"
   id="svg850"
   sodipodi:docname="ic_linkedin.svg"
   inkscape:version="1.0.1 (3bc2e813f5, 2020-09-07)">
  <metadata
     id="metadata856">
    <rdf:RDF>
      <cc:Work
         rdf:about="">
        <dc:format>image/svg+xml</dc:format>
        <dc:type
           rdf:resource="http://purl.org/dc/dcmitype/StillImage" />
        <dc:title />
      </cc:Work>
    </rdf:RDF>
  </metadata>
  <defs
     id="defs854" />
  <sodipodi:namedview
     pagecolor="#ffffff"
     bordercolor="#666666"
     borderopacity="1"
     objecttolerance="10"
     gridtolerance="10"
     guidetolerance="10"
     inkscape:pageopacity="0"
     inkscape:pageshadow="2"
     inkscape:window-width="1920"
     inkscape:window-height="1017"
     id="namedview852"
     showgrid="false"
     inkscape:pagecheckerboard="true"
     inkscape:zoom="4.5685727"
     inkscape:cx="50.68557"
     inkscape:cy="56.542725"
     inkscape:window-x="-8"
     inkscape:window-y="-8"
     inkscape:window-maximized="1"
     inkscape:current-layer="svg850"
     inkscape:document-rotation="0" />
  <path
     id="path844"
     style="fill:#ffffff;stroke-width:0.0514056"
     d="m 0.97269095,-0.02631937 c -0.5369134,0 -0.9725776,0.42253638 -0.9726907,0.94277104 V 12.191149 c 0,0.520379 0.435759,0.94237 0.9726907,0.94237 H 12.187148 c 0.537189,0 0.972691,-0.422088 0.972691,-0.94257 V 0.91645167 c 0,-0.52032768 -0.435502,-0.94277104 -0.972691,-0.94277104 z M 3.0279117,2.2062107 c 0.673516,0 1.088153,0.4421944 1.101004,1.0236947 0,0.5685461 -0.427483,1.0234939 -1.1140562,1.0234939 h -0.012851 c -0.6609221,0 -1.0881526,-0.4549478 -1.0881526,-1.0234939 0,-0.5814489 0.4400771,-1.0236947 1.1140558,-1.0236947 z m 5.8052211,2.7170681 c 1.2955762,0 2.2670682,0.8467582 2.2670682,2.6664657 V 10.986732 H 9.1311247 V 7.8176562 c 0,-0.7965301 -0.285212,-1.3399598 -0.997591,-1.3399598 -0.544128,0 -0.868151,0.3663534 -1.010441,0.7202811 -0.05202,0.1263036 -0.06486,0.3036867 -0.06486,0.480522 v 3.3082325 h -1.969076 c 2e-6,-3.92e-4 0.0259,-5.3687201 2.01e-4,-5.9244973 h 1.969076 V 5.9019936 C 7.3199687,5.4982905 7.7870347,4.9232788 8.8331328,4.9232788 Z M 2.0299198,5.0620339 H 3.9991967 V 10.986732 H 2.0299198 Z" />
</svg>
