<?xml version="1.0" encoding="UTF-8" standalone="no"?>
<svg
   xmlns:dc="http://purl.org/dc/elements/1.1/"
   xmlns:cc="http://creativecommons.org/ns#"
   xmlns:rdf="http://www.w3.org/1999/02/22-rdf-syntax-ns#"
   xmlns:svg="http://www.w3.org/2000/svg"
   xmlns="http://www.w3.org/2000/svg"
   xmlns:sodipodi="http://sodipodi.sourceforge.net/DTD/sodipodi-0.dtd"
   xmlns:inkscape="http://www.inkscape.org/namespaces/inkscape"
   clip-rule="evenodd"
   fill-rule="evenodd"
   height="128"
   stroke-linejoin="round"
   stroke-miterlimit="2"
   viewBox="-89.009348 -46.88414 32.969586 33.967441"
   width="128"
   version="1.1"
   id="svg4"
   sodipodi:docname="ic_twitter.svg"
   inkscape:version="1.0.1 (3bc2e813f5, 2020-09-07)">
  <metadata
     id="metadata10">
    <rdf:RDF>
      <cc:Work
         rdf:about="">
        <dc:format>image/svg+xml</dc:format>
        <dc:type
           rdf:resource="http://purl.org/dc/dcmitype/StillImage" />
        <dc:title />
      </cc:Work>
    </rdf:RDF>
  </metadata>
  <defs
     id="defs8" />
  <sodipodi:namedview
     pagecolor="#ffffff"
     bordercolor="#666666"
     borderopacity="1"
     objecttolerance="10"
     gridtolerance="10"
     guidetolerance="10"
     inkscape:pageopacity="0"
     inkscape:pageshadow="2"
     inkscape:window-width="1920"
     inkscape:window-height="1017"
     id="namedview6"
     showgrid="false"
     inkscape:pagecheckerboard="true"
     inkscape:zoom="6.4609375"
     inkscape:cx="64"
     inkscape:cy="64"
     inkscape:window-x="-8"
     inkscape:window-y="-8"
     inkscape:window-maximized="1"
     inkscape:current-layer="svg4"
     inkscape:document-rotation="0" />
  <path
     d="m -78.825943,-16.09247 c 12.818539,0 19.828559,-10.62356 19.828559,-19.835946 0,-0.301705 -0.0062,-0.602028 -0.01974,-0.901108 a 14.174136,14.174136 0 0 0 3.476289,-3.610088 c -1.248722,0.555355 -2.592442,0.929136 -4.002097,1.097663 1.438858,-0.863067 2.543425,-2.228466 3.064606,-3.856008 a 13.975026,13.975026 0 0 1 -4.42531,1.692233 c -1.271712,-1.355113 -3.08221,-2.202644 -5.086985,-2.202644 -3.848553,0 -6.969425,3.122116 -6.969425,6.970598 0,0.547141 0.06124,1.07916 0.180814,1.58964 -5.792095,-0.291555 -10.928094,-3.06571 -14.365384,-7.283969 a 6.9549947,6.9549947 0 0 0 -0.943626,3.504043 c 0,2.418738 1.230284,4.553931 3.101263,5.803135 a 6.9158496,6.9158496 0 0 1 -3.156224,-0.871971 c -9.16e-4,0.02927 -9.16e-4,0.05779 -9.16e-4,0.08906 0,3.37625 2.402166,6.195213 5.590973,6.833969 a 6.9754998,6.9754998 0 0 1 -1.837627,0.245298 c -0.448273,0 -0.885161,-0.04411 -1.309756,-0.125652 0.88723,2.770012 3.459924,4.785767 6.510171,4.842102 -2.385251,1.870218 -5.389928,2.984174 -8.65558,2.984174 a 14.146244,14.146244 0 0 1 -1.662338,-0.09659 c 3.084285,1.977644 6.746563,3.131574 10.682793,3.131574"
     fill="#1da1f2"
     fill-rule="nonzero"
     id="path2"
     style="stroke-width:0.0690399;fill:#ffffff" />
</svg>
